<?xml version="1.0" encoding="UTF-8" standalone="no"?>
<!-- Created with Inkscape (http://www.inkscape.org/) -->

<svg
   xmlns:dc="http://purl.org/dc/elements/1.1/"
   xmlns:cc="http://creativecommons.org/ns#"
   xmlns:rdf="http://www.w3.org/1999/02/22-rdf-syntax-ns#"
   xmlns:svg="http://www.w3.org/2000/svg"
   xmlns="http://www.w3.org/2000/svg"
   xmlns:sodipodi="http://sodipodi.sourceforge.net/DTD/sodipodi-0.dtd"
   xmlns:inkscape="http://www.inkscape.org/namespaces/inkscape"
   width="34.209064mm"
   height="50.471188mm"
   viewBox="0 0 34.209064 50.471188"
   version="1.1"
   id="svg8"
   inkscape:export-filename="/home/johannes/OneDrive/Presentations/esa/fire.png"
   inkscape:export-xdpi="96"
   inkscape:export-ydpi="96"
   inkscape:version="0.92.3 (2405546, 2018-03-11)"
   sodipodi:docname="fire.svg">
  <defs
     id="defs2">
    <inkscape:path-effect
       effect="bspline"
       id="path-effect4557"
       is_visible="true"
       weight="33.333333"
       steps="2"
       helper_size="0"
       apply_no_weight="true"
       apply_with_weight="true"
       only_selected="false" />
    <inkscape:path-effect
       effect="bspline"
       id="path-effect4553"
       is_visible="true"
       weight="33.333333"
       steps="2"
       helper_size="0"
       apply_no_weight="true"
       apply_with_weight="true"
       only_selected="false" />
    <inkscape:path-effect
       effect="bspline"
       id="path-effect3726"
       is_visible="true"
       weight="33.333333"
       steps="2"
       helper_size="0"
       apply_no_weight="true"
       apply_with_weight="true"
       only_selected="false" />
  </defs>
  <sodipodi:namedview
     id="base"
     pagecolor="#ffffff"
     bordercolor="#666666"
     borderopacity="1.0"
     inkscape:pageopacity="0.0"
     inkscape:pageshadow="2"
     inkscape:zoom="1.63"
     inkscape:cx="90.016068"
     inkscape:cy="172.84471"
     inkscape:document-units="mm"
     inkscape:current-layer="layer1"
     showgrid="false"
     inkscape:window-width="958"
     inkscape:window-height="1055"
     inkscape:window-x="0"
     inkscape:window-y="23"
     inkscape:window-maximized="0" />
  <metadata
     id="metadata5">
    <rdf:RDF>
      <cc:Work
         rdf:about="">
        <dc:format>image/svg+xml</dc:format>
        <dc:type
           rdf:resource="http://purl.org/dc/dcmitype/StillImage" />
        <dc:title></dc:title>
      </cc:Work>
    </rdf:RDF>
  </metadata>
  <g
     inkscape:label="Layer 1"
     inkscape:groupmode="layer"
     id="layer1"
     transform="translate(-102.72277,-170.43038)">
    <path
       style="fill:#eaa282;fill-opacity:1;stroke:#d24000;stroke-width:3;stroke-miterlimit:4;stroke-dasharray:none;stroke-opacity:1"
       d="m 116.05973,218.95064 c -2.43492,-0.62221 -4.38277,-1.86667 -6.26676,-3.69338 -1.884,-1.82671 -3.74324,-4.28746 -4.6901,-7.37164 -0.94686,-3.08419 -1.00097,-6.81764 -0.74289,-9.85062 0.25807,-3.03299 0.87825,-5.57008 1.33492,-8.11331 0.45667,-2.54324 0.78775,-5.30227 0.97716,-6.73612 0.18941,-1.43384 0.24352,-1.59616 0.81051,-0.84018 0.56699,0.75598 1.65125,2.43658 3.05806,5.41252 1.40681,2.97594 3.13797,7.24975 4.13911,8.08842 1.00113,0.83867 1.27164,-1.75817 1.43395,-6.38432 0.16231,-4.62614 0.21641,-11.2813 0.3518,-14.60875 0.13539,-3.32744 0.35184,-3.32744 1.36512,-2.36899 1.01328,0.95844 2.88215,2.93725 4.55945,7.42805 1.67731,4.4908 3.19223,11.5244 4.4368,12.98529 1.24457,1.46089 2.21846,-2.65106 2.516,-6.54674 0.29754,-3.89568 -0.0812,-7.57495 -0.27058,-9.41447 -0.18936,-1.83952 -0.18936,-1.83952 0.56813,-0.8656 0.75749,0.97391 2.27248,2.92176 3.27346,5.41058 1.00097,2.48883 1.48792,5.51877 1.83963,8.52175 0.35172,3.00299 0.56813,5.97865 0.64931,8.87353 0.0812,2.89487 0.0271,5.70802 -0.7304,8.33243 -0.75747,2.6244 -2.21823,5.059 -4.05794,7.08815 -1.8397,2.02915 -4.05785,3.65218 -6.62814,4.4639 -2.5703,0.81171 -5.49169,0.81171 -7.9266,0.1895 z"
       id="path3724"
       inkscape:connector-curvature="0"
       inkscape:path-effect="#path-effect3726"
       inkscape:original-d="m 115.5726,219.57285 c -1.94759,-1.24473 -3.89544,-2.48919 -5.84356,-3.73339 -1.78533,-2.43516 -3.67901,-4.86989 -5.51892,-7.30444 -0.0538,-3.73359 -0.10795,-7.46704 -0.16232,-11.20016 0.5954,-2.3267 1.19062,-4.86989 1.78553,-7.30444 0.32487,-2.65117 0.64955,-5.41097 0.97393,-8.11606 0.0544,-0.16257 0.10848,-0.3249 0.16232,-0.48696 1.08029,1.67377 2.16455,3.35437 3.24642,5.03195 1.73176,4.27437 3.46292,8.54818 5.19427,12.82337 0.27084,-2.59769 0.54134,-5.19454 0.81162,-7.79142 0.0544,-6.65543 0.10847,-13.31059 0.16231,-19.96548 0.21668,-2.7e-4 0.43313,-2.7e-4 0.64929,0 1.83765,1.89116 3.67954,3.89544 5.51892,5.84356 1.51526,7.03367 3.03019,14.06727 4.54498,21.10173 0.97423,-4.11257 1.94812,-8.22452 2.92179,-12.3364 -0.37849,-3.67955 -0.75724,-7.35882 -1.13626,-11.03783 2.7e-4,-2.7e-4 2.7e-4,-2.7e-4 0,0 1.51528,1.9476 3.03027,3.89545 4.54499,5.84356 0.48723,3.02972 0.97418,6.05966 1.46089,9.08998 0.2167,2.97568 0.43311,5.95134 0.64929,8.92766 -0.0538,2.81346 -0.10794,5.62661 -0.16232,8.44069 -1.46075,2.43477 -2.92152,4.86937 -4.38267,7.30445 -2.21836,1.62312 -4.43651,3.24616 -6.65516,4.86963 -2.92191,-2.6e-4 -5.8433,-2.6e-4 -8.76534,0 z"
       sodipodi:nodetypes="cccccccccccccccccccccccc" />
    <path
       style="fill:#d24000;fill-opacity:1;stroke:#d24000;stroke-width:1;stroke-miterlimit:4;stroke-dasharray:none;stroke-opacity:1"
       d="m 117.2231,217.66999 c -1.70454,-0.94695 -2.24567,-3.17436 -2.57032,-5.3972 -0.32465,-2.22284 -0.43287,-4.44142 -0.27049,-6.25403 0.16237,-1.81261 0.58319,-3.18026 1.25046,-3.01332 0.66727,0.16694 1.5089,1.8502 1.91473,3.3652 0.40583,1.515 0.35173,2.81339 0.32467,3.46281 -0.0271,0.64942 -0.0271,0.64942 -0.0271,0.64942 1.19036,-1.94785 2.3809,-3.89602 3.1924,-6.16826 0.81149,-2.27224 1.24443,-4.86988 1.48803,-6.16829 0.2436,-1.29842 0.29768,-1.29842 0.99761,-0.2216 0.69993,1.07681 2.05922,3.25167 2.81673,5.44296 0.75752,2.19128 0.91983,4.40959 0.67637,6.65513 -0.24347,2.24553 -0.89268,4.51777 -1.35254,5.84343 -0.45987,1.32565 -0.73037,1.70435 -2.30054,2.06082 -1.57017,0.35648 -4.43551,0.68988 -6.14005,-0.25707 z"
       id="path4555"
       inkscape:connector-curvature="0"
       inkscape:path-effect="#path-effect4557"
       inkscape:original-d="m 116.05973,218.95064 c -0.54086,-2.22768 -1.08199,-4.45509 -1.62338,-6.68224 -0.10794,-2.21846 -0.21616,-4.43704 -0.32464,-6.65516 0.43312,-1.40704 0.85393,-2.77469 1.29857,-4.22035 0.89006,1.77933 1.73169,3.46259 2.59713,5.19427 -0.0538,1.29849 -0.10795,2.59688 -0.16232,3.89571 2.6e-4,-2.6e-4 0,0 0,0 0,0 2.38098,-3.89597 3.57107,-5.84356 0.43303,-2.5969 0.86597,-5.19454 1.29856,-7.79141 0.0544,-2.6e-4 0.10848,-2.6e-4 0.16232,0 1.34633,2.15344 2.70562,4.3283 4.05803,6.49284 0.16259,2.2182 0.32491,4.43651 0.48696,6.65517 -0.64909,2.27248 -1.2983,4.54472 -1.94785,6.81748 -0.27031,0.37854 -0.5408,0.75724 -0.81161,1.13625 -2.86962,0.33367 -5.73496,0.66707 -8.60284,1.001 z"
       sodipodi:nodetypes="ccccccccccccccc" />
  </g>
</svg>
