<?xml version="1.0" encoding="UTF-8" standalone="no"?>
<!-- Created with Inkscape (http://www.inkscape.org/) -->

<svg
   xmlns:osb="http://www.openswatchbook.org/uri/2009/osb"
   xmlns:dc="http://purl.org/dc/elements/1.1/"
   xmlns:cc="http://creativecommons.org/ns#"
   xmlns:rdf="http://www.w3.org/1999/02/22-rdf-syntax-ns#"
   xmlns:svg="http://www.w3.org/2000/svg"
   xmlns="http://www.w3.org/2000/svg"
   xmlns:sodipodi="http://sodipodi.sourceforge.net/DTD/sodipodi-0.dtd"
   xmlns:inkscape="http://www.inkscape.org/namespaces/inkscape"
   width="67.796921mm"
   height="74.444695mm"
   viewBox="0 0 67.796919 74.444689"
   version="1.1"
   id="svg8"
   inkscape:version="0.92.3 (2405546, 2018-03-11)"
   sodipodi:docname="wrench.svg"
   inkscape:export-filename="/home/johannes/OneDrive/Presentations/esa/wrench.png"
   inkscape:export-xdpi="96"
   inkscape:export-ydpi="96">
  <defs
     id="defs2">
    <inkscape:path-effect
       effect="bspline"
       id="path-effect4651"
       is_visible="true"
       weight="33.333333"
       steps="2"
       helper_size="0"
       apply_no_weight="true"
       apply_with_weight="true"
       only_selected="false" />
    <inkscape:path-effect
       effect="bspline"
       id="path-effect4621"
       is_visible="true"
       weight="33.333333"
       steps="2"
       helper_size="0"
       apply_no_weight="true"
       apply_with_weight="true"
       only_selected="false" />
    <linearGradient
       id="linearGradient4584"
       osb:paint="solid">
      <stop
         style="stop-color:#000000;stop-opacity:1;"
         offset="0"
         id="stop4582" />
    </linearGradient>
    <inkscape:path-effect
       effect="bspline"
       id="path-effect4580"
       is_visible="true"
       weight="33.333333"
       steps="2"
       helper_size="0"
       apply_no_weight="true"
       apply_with_weight="true"
       only_selected="false" />
    <inkscape:path-effect
       effect="bspline"
       id="path-effect3744"
       is_visible="true"
       weight="33.333333"
       steps="2"
       helper_size="0"
       apply_no_weight="true"
       apply_with_weight="true"
       only_selected="false" />
    <inkscape:path-effect
       effect="bspline"
       id="path-effect3736"
       is_visible="true"
       weight="33.333333"
       steps="2"
       helper_size="0"
       apply_no_weight="true"
       apply_with_weight="true"
       only_selected="false" />
    <inkscape:path-effect
       effect="bspline"
       id="path-effect4651-3"
       is_visible="true"
       weight="33.333333"
       steps="2"
       helper_size="0"
       apply_no_weight="true"
       apply_with_weight="true"
       only_selected="false" />
    <inkscape:path-effect
       effect="bspline"
       id="path-effect3744-5"
       is_visible="true"
       weight="33.333333"
       steps="2"
       helper_size="0"
       apply_no_weight="true"
       apply_with_weight="true"
       only_selected="false" />
  </defs>
  <sodipodi:namedview
     id="base"
     pagecolor="#ffffff"
     bordercolor="#666666"
     borderopacity="1.0"
     inkscape:pageopacity="0.0"
     inkscape:pageshadow="2"
     inkscape:zoom="1.45"
     inkscape:cx="183.03096"
     inkscape:cy="155.35108"
     inkscape:document-units="mm"
     inkscape:current-layer="g4689"
     showgrid="false"
     fit-margin-top="0"
     fit-margin-left="0"
     fit-margin-right="0"
     fit-margin-bottom="0"
     inkscape:window-width="958"
     inkscape:window-height="1055"
     inkscape:window-x="0"
     inkscape:window-y="23"
     inkscape:window-maximized="0" />
  <metadata
     id="metadata5">
    <rdf:RDF>
      <cc:Work
         rdf:about="">
        <dc:format>image/svg+xml</dc:format>
        <dc:type
           rdf:resource="http://purl.org/dc/dcmitype/StillImage" />
        <dc:title></dc:title>
      </cc:Work>
    </rdf:RDF>
  </metadata>
  <g
     inkscape:label="Layer 1"
     inkscape:groupmode="layer"
     id="layer1"
     transform="translate(-50.376324,-43.997287)">
    <g
       id="g4689"
       transform="rotate(-90,122.34821,142.35555)">
      <path
         sodipodi:nodetypes="ccccccccccccccccccccccccccccccccccccccccccccccccccc"
         inkscape:original-d="m 172.07452,89.684497 c 7.17041,5.767492 14.34156,11.535523 21.51051,17.301743 0.54501,0.41427 1.09014,0.82858 1.63444,1.24219 0.98049,0.54483 1.96188,1.09004 2.94202,1.63445 0.9589,0.34886 1.91829,0.69773 2.87665,1.04606 1.19855,0.0656 2.39769,0.13103 3.5958,0.19613 0.95898,-0.0433 1.91839,-0.0869 2.87665,-0.13076 1.19842,0.3706 2.39789,0.74135 3.5958,1.11144 0.9806,0.80631 1.96193,1.61318 2.94202,2.41899 0.89348,1.02419 1.78759,2.04915 2.68051,3.07278 0.50132,0.84987 1.00296,1.70047 1.50369,2.54974 0.30523,0.65375 0.61073,1.30837 0.91531,1.96136 0.0438,0.43576 0.0875,0.87235 0.13075,1.30756 -0.23924,0.15268 -0.47888,0.30518 -0.71916,0.45765 -0.26156,-0.13065 -0.52245,-0.2611 -0.78453,-0.39227 -2.42153,-1.33064 -4.83808,-2.65865 -7.25699,-3.98808 -0.4791,0.0438 -0.9585,0.0874 -1.43833,0.13075 -0.3485,0.21825 -0.69688,0.436 -1.04604,0.6538 -1.06821,1.06874 -2.13539,2.13592 -3.20353,3.20353 -0.4356,1.87449 -0.87136,3.7482 -1.30758,5.62252 0.13106,0.0439 0.26213,0.0875 0.39228,0.13076 2.36952,1.36965 4.75176,2.74654 7.12623,4.11883 0.39243,0.34884 0.75011,0.66677 1.17683,1.04603 0.0714,0.30863 0.13108,0.56712 0.19613,0.8499 -0.26101,0.34863 -0.52266,0.6975 -0.78454,1.04606 -1.11158,0.15287 -2.22305,0.30542 -3.33428,0.45765 -1.19784,-0.0215 -2.39661,-0.0433 -3.59581,-0.0654 -1.17687,-0.30492 -2.35298,-0.60983 -3.53043,-0.91529 -0.98072,-0.50113 -1.96069,-1.00201 -2.94201,-1.5037 -0.84998,-0.67558 -1.69915,-1.35055 -2.54976,-2.02673 -0.37039,-0.80647 -0.74052,-1.61204 -1.11142,-2.41899 -0.0651,-0.93724 -0.13047,-1.87357 -0.19614,-2.81128 -0.0869,-0.69737 -0.17405,-1.39425 -0.26151,-2.09209 -0.26133,-0.91531 -0.52265,-1.82993 -0.78454,-2.74588 -0.21776,-0.65381 -0.43551,-1.30707 -0.65379,-1.96136 -0.39215,-0.82817 -0.78414,-1.65572 -1.17681,-2.48438 -0.52293,-0.65373 -1.04563,-1.30711 -1.56907,-1.96133 -7.91309,-6.72777 -15.81476,-13.44585 -23.73337,-20.178383 -0.68947,-0.703614 -1.37879,-1.405799 -2.06834,-2.108225 -2.89585,-0.782824 -5.79009,-1.56511 -8.69226,-2.34944 -1.53389,-0.795538 -3.0543,-1.583912 -4.59584,-2.383035 -1.08608,-1.860002 -2.14997,-3.68141 -3.23985,-5.546637 0.0183,-1.439783 0.0357,-2.828831 0.0534,-4.281497 0.95141,-1.584647 1.85158,-3.084541 2.80302,-4.670482 1.59328,-0.768194 3.25674,-1.570421 4.691,-2.26229 1.02079,-0.113674 2.11954,-0.236081 3.33657,-0.371704 1.67715,0.807388 3.08381,1.484726 4.59555,2.212834 1.28406,1.782022 3.90135,5.415858 3.90135,5.415858 l 2.81123,7.257008 c 0,0 1.52584,2.13571 2.2882,3.203569 z"
         inkscape:path-effect="#path-effect3744-5"
         inkscape:connector-curvature="0"
         id="path3742"
         d="m 175.65974,92.568227 c 3.58522,2.883731 10.75636,8.651763 14.61335,11.742003 3.85698,3.09024 4.40211,3.50455 5.16451,3.98375 0.76241,0.47919 1.7438,1.02441 2.71332,1.47101 0.96952,0.4466 1.92891,0.79547 3.00735,1.0024 1.07843,0.20692 2.27757,0.27233 3.35611,0.28321 1.07853,0.0109 2.03794,-0.0327 3.11631,0.13071 1.07837,0.16344 2.27784,0.53419 3.36708,1.12246 1.08924,0.58827 2.07057,1.39514 3.00733,2.31016 0.93677,0.91502 1.83088,1.93998 2.52797,2.87674 0.69708,0.93677 1.19872,1.78737 1.60169,2.53888 0.40296,0.75152 0.70846,1.40614 0.8826,1.9505 0.17414,0.54435 0.21779,0.98095 0.11983,1.27472 -0.098,0.29378 -0.3376,0.44628 -0.58839,0.45729 -0.2508,0.011 -0.51169,-0.11943 -1.8535,-0.85033 -1.3418,-0.7309 -3.75835,-2.05891 -5.20739,-2.7018 -1.44904,-0.6429 -1.92844,-0.59932 -2.34269,-0.46854 -0.41425,0.13078 -0.76263,0.34853 -1.47135,0.99182 -0.70872,0.64329 -1.7759,1.71048 -2.5278,3.18162 -0.7519,1.47115 -1.18765,3.34486 -1.34004,4.30391 -0.1524,0.95905 -0.0213,1.00273 1.22849,1.7092 1.24984,0.70647 3.63208,2.08336 5.01551,2.94396 1.38343,0.86059 1.74112,1.17852 1.99008,1.5225 0.24897,0.34397 0.30862,0.60247 0.21059,0.91804 -0.098,0.31557 -0.35968,0.66444 -1.04628,0.91512 -0.6866,0.25068 -1.79807,0.40323 -2.95258,0.4686 -1.15451,0.0654 -2.35328,0.0436 -3.5413,-0.11989 -1.18801,-0.16346 -2.36412,-0.46837 -3.4432,-0.87163 -1.07909,-0.40325 -2.05906,-0.90413 -2.97472,-1.49273 -0.91567,-0.5886 -1.76483,-1.26357 -2.37541,-2.00485 -0.61057,-0.74128 -0.9807,-1.54686 -1.19878,-2.41897 -0.21809,-0.87211 -0.28342,-1.80844 -0.35971,-2.62597 -0.0763,-0.81754 -0.16341,-1.51442 -0.33778,-2.32099 -0.17436,-0.80656 -0.43568,-1.72118 -0.6755,-2.50606 -0.23982,-0.78488 -0.45757,-1.43814 -0.76276,-2.17937 -0.30519,-0.74123 -0.69719,-1.56877 -1.15495,-2.30998 -0.45775,-0.74121 -0.98046,-1.39459 -5.1987,-5.08561 -4.21824,-3.69102 -12.1199,-10.4091 -16.42416,-14.126957 -4.30426,-3.717854 -4.99337,-4.420249 -6.78598,-5.162929 -1.79261,-0.742681 -4.68685,-1.524968 -6.9049,-2.314876 -2.21806,-0.789908 -3.73847,-1.578273 -5.05238,-2.907833 -1.3139,-1.32956 -2.3778,-3.150962 -2.91362,-4.803552 -0.53582,-1.65259 -0.5185,-3.041639 -0.0339,-4.560376 0.48463,-1.518736 1.3848,-3.018629 2.65726,-4.195689 1.27246,-1.17706 2.93592,-1.979284 4.16348,-2.382005 1.22756,-0.402721 2.32631,-0.525125 3.77336,-0.189145 1.44706,0.335979 2.85372,1.013311 4.25153,2.26839 1.39782,1.25508 2.7149,3.083455 4.01535,4.888741 0,0 2.81123,7.257008 2.81123,7.257008 0.76273,1.067856 1.52559,2.135887 1.9069,2.669728 0.3813,0.533841 0.38129,0.533882 3.96651,3.417612 z"
         style="fill:#cee2b1;fill-opacity:1;stroke:#66a40a;stroke-width:3;stroke-miterlimit:4;stroke-dasharray:none;stroke-opacity:1" />
      <path
         inkscape:original-d="m 155.45194,74.549407 c 0.43716,0.186988 0.87399,0.373968 1.3105,0.560955 0.48395,-0.234257 0.96819,-0.468812 1.45179,-0.703211 0.20297,0.171438 0.40585,0.34306 0.60824,0.514626 0.17165,0.202621 0.34334,0.405568 0.51463,0.608246 0.24975,0.0934 0.49958,0.186945 0.74888,0.280424 0.38995,0.108852 0.78046,0.217959 1.1702,0.326952 0.10926,0.358581 0.21835,0.717714 0.32703,1.07657 0.047,0.233996 0.0936,0.468105 0.14,0.702165 0.26542,0.202635 0.49942,0.436631 0.7486,0.654978 0.21844,0.249411 0.43692,0.499147 0.65498,0.748607 -0.0778,0.296363 -0.15612,0.593114 -0.23466,0.889675 -0.10914,0.29666 -0.18732,0.561924 -0.28145,0.842892 0.0938,0.280927 0.15603,0.530479 0.23356,0.795729 0.0782,0.265158 0.15604,0.530486 0.23357,0.795728 -0.26505,0.265385 -0.53061,0.530946 -0.79641,0.796401 -0.18717,0.18751 -0.37444,0.374787 -0.56217,0.562171 -0.0311,0.312414 -0.0625,0.624269 -0.0942,0.9364 -0.0935,0.28099 -0.18731,0.561917 -0.28146,0.842885 -0.35881,0.140729 -0.71771,0.281365 -1.07706,0.422058 -0.2496,0.06264 -0.49913,0.125165 -0.74918,0.187751 -0.20293,0.203251 -0.40569,0.406007 -0.60902,0.609017 -0.23405,0.171962 -0.46807,0.343619 -0.70259,0.515432 -0.26517,-0.04668 -0.5302,-0.09328 -0.79579,-0.139923 -0.23396,-0.109226 -0.4677,-0.218177 -0.70204,-0.327256 -0.32784,0.109573 -0.65525,0.218899 -0.98336,0.328345 -0.21844,0.09384 -0.43676,0.187553 -0.65562,0.28133 -0.37454,-0.21851 -0.74846,-0.436469 -1.12318,-0.654703 -0.23373,-0.296526 -0.46743,-0.592733 -0.70167,-0.88906 -0.28072,1.84e-4 -0.56148,3.61e-4 -0.84271,5.45e-4 -0.28086,-0.0623 -0.5614,-0.124479 -0.84258,-0.186712 -0.0307,-0.281202 -0.0617,-0.561768 -0.0931,-0.842645 -0.0619,-0.280898 -0.12416,-0.561726 -0.18672,-0.842581 -0.23367,-0.233989 -0.46754,-0.467857 -0.70179,-0.701797 -0.15567,-0.187348 -0.31155,-0.374335 -0.46785,-0.561464 0.0474,-0.328019 0.0944,-0.655495 0.14109,-0.983239 0.0785,-0.202911 0.12547,-0.437041 0.1877,-0.655558 -0.0775,-0.233947 -0.15543,-0.46807 -0.23363,-0.702101 -0.0776,-0.265356 -0.15539,-0.530493 -0.23356,-0.795735 0.21906,-0.249892 0.43759,-0.49967 0.65589,-0.749512 0.1876,-0.187271 0.37512,-0.374788 0.56217,-0.562172 0.0162,-0.389806 0.032,-0.780306 0.0476,-1.170459 0.0942,-0.343364 0.21927,-0.717996 0.32842,-1.076995 0.3748,-0.06264 0.74947,-0.125334 1.12372,-0.187991 0.23424,-0.04693 0.46856,-0.09395 0.70234,-0.140912 0.24987,-0.218327 0.49997,-0.437317 0.74953,-0.655905 0.34357,-0.28092 0.6873,-0.562285 1.03052,-0.843367 0.0939,0.03111 0.18758,0.06227 0.28084,0.09345 z"
         inkscape:path-effect="#path-effect4651-3"
         inkscape:connector-curvature="0"
         id="path4649"
         d="m 155.6705,74.642959 c 0.21855,0.09355 0.65538,0.280535 1.1156,0.256777 0.46023,-0.02376 0.94447,-0.258312 1.28771,-0.289644 0.34325,-0.03133 0.54611,0.140309 0.73315,0.32736 0.18703,0.187052 0.35874,0.389988 0.56929,0.538033 0.21056,0.148044 0.46039,0.241594 0.78002,0.34275 0.31963,0.101156 0.71014,0.210264 0.9595,0.444051 0.24936,0.233787 0.35846,0.592919 0.43628,0.889332 0.0778,0.296413 0.1245,0.530507 0.27321,0.757209 0.14871,0.226702 0.39721,0.444125 0.63104,0.677966 0.23382,0.23384 0.45232,0.483565 0.52233,0.756382 0.07,0.272816 -0.008,0.569579 -0.0974,0.867744 -0.0892,0.298164 -0.17669,0.560305 -0.18194,0.842832 -0.005,0.282527 0.0671,0.529102 0.14498,0.794312 0.0778,0.26521 0.15572,0.530526 0.062,0.795711 -0.0937,0.265185 -0.35926,0.530744 -0.58575,0.757227 -0.22648,0.226483 -0.41375,0.413757 -0.52324,0.663726 -0.10949,0.249969 -0.14087,0.561827 -0.20347,0.858353 -0.0626,0.296526 -0.1564,0.577453 -0.38276,0.788297 -0.22635,0.210843 -0.58525,0.351482 -0.88972,0.45316 -0.30446,0.101678 -0.55399,0.164212 -0.78055,0.297087 -0.22656,0.132875 -0.42932,0.335633 -0.64799,0.523114 -0.21867,0.187482 -0.45268,0.359154 -0.70248,0.421824 -0.24979,0.06267 -0.51482,0.01607 -0.76462,-0.06182 -0.2498,-0.07789 -0.48354,-0.18685 -0.76462,-0.186716 -0.28107,1.34e-4 -0.60848,0.109457 -0.88176,0.211105 -0.27328,0.101647 -0.49161,0.195334 -0.78833,0.133097 -0.29671,-0.06224 -0.67063,-0.280197 -0.97491,-0.537576 -0.30427,-0.257379 -0.53802,-0.55355 -0.79538,-0.701713 -0.25737,-0.148162 -0.53813,-0.147981 -0.81918,-0.17901 -0.28105,-0.03103 -0.5616,-0.0932 -0.71771,-0.26493 -0.15611,-0.171733 -0.18711,-0.452299 -0.23375,-0.73317 -0.0466,-0.28087 -0.10887,-0.561704 -0.25691,-0.819081 -0.14804,-0.257377 -0.38191,-0.491247 -0.57692,-0.70186 -0.19501,-0.210614 -0.35085,-0.397635 -0.40535,-0.655324 -0.0545,-0.257689 -0.008,-0.585166 0.0458,-0.853169 0.0533,-0.268003 0.11885,-0.496823 0.11121,-0.722958 -0.008,-0.226136 -0.0855,-0.460266 -0.16343,-0.709969 -0.0779,-0.249704 -0.1557,-0.514832 -0.0852,-0.772537 0.0705,-0.257704 0.28904,-0.507459 0.492,-0.726015 0.20297,-0.218556 0.39048,-0.406075 0.49202,-0.694593 0.10153,-0.288519 0.11741,-0.679016 0.17725,-1.044303 0.0598,-0.365288 0.175,-0.742941 0.41712,-0.953746 0.24212,-0.210804 0.61679,-0.273484 0.92103,-0.328286 0.30425,-0.0548 0.53857,-0.101815 0.78032,-0.234525 0.24175,-0.132711 0.49191,-0.351627 0.78846,-0.6014 0.29656,-0.249773 0.64031,-0.531102 0.8589,-0.655969 0.21859,-0.124867 0.31227,-0.0937 0.35892,-0.07817 0.0466,0.01552 0.0466,0.01549 0.26521,0.109042 z"
         style="fill:#ffffff;fill-opacity:1;stroke:#66a40a;stroke-width:3;stroke-miterlimit:4;stroke-dasharray:none;stroke-opacity:1" />
    </g>
  </g>
</svg>
